<svg width="48" height="48" fill="none" xmlns="http://www.w3.org/2000/svg"><path d="M2 24C2 14.618 2 9.927 4.48 6.695A12 12 0 0 1 6.695 4.48C9.927 2 14.618 2 24 2s14.074 0 17.305 2.48a12 12 0 0 1 2.215 2.215C46 9.927 46 14.618 46 24s0 14.074-2.48 17.305a11.999 11.999 0 0 1-2.215 2.215C38.074 46 33.382 46 24 46S9.927 46 6.695 43.52a12 12 0 0 1-2.215-2.215C2 38.074 2 33.382 2 24Z" fill="url(#a)"/><path d="M24 12a7 7 0 0 0-7 7v2h-1a3 3 0 0 0-3 3v10a3 3 0 0 0 3 3h16a3 3 0 0 0 3-3V24a3 3 0 0 0-3-3h-1v-2a7 7 0 0 0-7-7Zm0 3a4 4 0 0 1 4 4v2h-8v-2a4 4 0 0 1 4-4Zm0 9a2.5 2.5 0 0 1 1 4.77V31a1 1 0 0 1-2 0v-2.23A2.5 2.5 0 0 1 24 24Z" fill="url(#b)"/><defs><radialGradient id="a" cx="0" cy="0" r="1" gradientUnits="userSpaceOnUse" gradientTransform="rotate(-49.921 51.589 15.518) scale(53.584)"><stop offset=".225" stop-color="#FF4D2B"/><stop offset="1" stop-color="#FF8C42"/></radialGradient><linearGradient id="b" x1="24" y1="12" x2="24" y2="37" gradientUnits="userSpaceOnUse"><stop stop-color="#FFF5F0"/><stop offset="1" stop-color="#FFE0D0"/></linearGradient></defs></svg>
